<svg width="64" height="16" viewBox="0 0 64 16" fill="none" xmlns="http://www.w3.org/2000/svg">
<path d="M39.3089 2.52351H61.7833L64.0007 0.00634766H31.8175L22.8877 15.2289H43.7438L45.2421 12.7118H33.3158L35.5931 8.8763H47.5195L48.9579 6.35915H37.0914L39.3089 2.52351ZM22.1086 6.35915H13.2387L14.677 3.90199C15.2764 2.88313 15.8157 2.52351 16.7147 2.52351C17.6138 2.52351 17.9132 3.24275 17.434 4.1418H26.4835L27.3826 2.52351C28.0418 1.32483 28.0418 0.00634766 26.4237 0.00634766H10.4819C9.04362 0.00634766 7.90475 0.186158 7.0657 1.56464L4.24892 6.35915C3.46987 7.73763 3.52988 8.8763 5.4476 8.8763H14.617L13.1187 11.5133C12.6993 12.2325 12.1596 12.7118 10.9013 12.7118C9.82248 12.7118 9.88248 11.9925 10.3619 11.2735H1.37215L0.293285 13.0714C-0.365766 14.2101 0.173471 15.2289 1.73157 15.2289H17.5536C18.9919 15.2289 20.2503 14.5697 20.9698 13.371L23.6666 8.8763C24.2662 7.73763 23.9664 6.35915 22.1086 6.35915Z" fill="#E7E7E7"/>
</svg>
