<svg width="99" height="13" viewBox="0 0 99 13" fill="none" xmlns="http://www.w3.org/2000/svg">
<path d="M97.3933 2.82696C96.8307 2.82696 96.3743 3.27982 96.3743 3.83305C96.3743 4.39773 96.8305 4.85058 97.3933 4.85058C97.9532 4.85058 98.4068 4.39773 98.4068 3.83305C98.4067 3.27982 97.9531 2.82696 97.3933 2.82696ZM97.3933 4.65283C96.9341 4.65283 96.5674 4.29449 96.5674 3.83305C96.5674 3.38592 96.9341 3.02472 97.3933 3.02472C97.8468 3.02472 98.2135 3.38592 98.2135 3.83305C98.2135 4.29449 97.8468 4.65283 97.3933 4.65283ZM52.0548 0.495117H41.636C40.2068 0.495117 38.3627 0.495117 37.2564 2.47765L32.6462 10.502C32.0008 11.5877 32.5541 12.4845 33.7526 12.4845H45.8772C47.1221 12.4845 47.9057 12.1069 48.8739 10.502L53.484 2.47765C54.0831 1.4392 53.1612 0.495117 52.0548 0.495117ZM46.2 3.56336L42.7424 9.55807C42.2813 10.4078 41.8665 10.502 40.8061 10.502C39.7457 10.502 39.4691 10.1244 39.7919 9.55807L43.2955 3.56336C43.8026 2.66653 44.4019 2.47765 45.2778 2.47765C46.154 2.47765 46.661 2.76089 46.2 3.56336ZM33.7988 0.495117H20.4293L14.6668 10.502H1.94289L0 12.4845H27.6213C29.3269 12.4845 29.8802 11.6348 30.249 10.9741L31.632 8.51947C32.0008 7.85862 32.0008 7.10341 31.2632 6.6787C32.0023 6.6787 33.015 6.15948 33.6144 5.07377L34.9974 2.66653C35.6889 1.48631 34.8591 0.495117 33.7988 0.495117ZM26.9297 8.56672L26.2381 9.69954C26.0538 10.0773 25.731 10.502 24.9473 10.502H21.5358L23.2888 7.48117H26.6071C27.2063 7.48117 27.2063 8.04765 26.9297 8.56672ZM29.834 3.56336L29.1425 4.69617C28.958 5.07377 28.6354 5.49863 27.8516 5.49863H24.4402L26.192 2.47765H29.5113C30.1107 2.47765 30.1107 3.04413 29.834 3.56336Z" fill="#E7E7E7"/>
</svg>
